<svg id="Camada_1" data-name="Camada 1" xmlns="http://www.w3.org/2000/svg" viewBox="0 0 197.01 78.8"><defs><style>.cls-1{fill:#e43d30;}.cls-2,.cls-3{fill:#fff;}.cls-3{font-size:6.13px;font-family:TitilliumWeb-SemiBold, TitilliumWeb SemiBold;font-weight:600;}</style></defs><title>logo</title><rect class="cls-1" width="197.01" height="78.8"/><path class="cls-2" d="M451.63,357.53c-.67,0-1,.22-1,.66a.51.51,0,0,0,.25.45,6.88,6.88,0,0,0,1.16.45,3.26,3.26,0,0,1,1.28.66,1.6,1.6,0,0,1,.37,1.15,1.85,1.85,0,0,1-.6,1.49,2.37,2.37,0,0,1-1.56.5,8.48,8.48,0,0,1-1.76-.22l-.33-.06.13-1a15.57,15.57,0,0,0,1.88.17c.65,0,1-.27,1-.81a.54.54,0,0,0-.23-.46,3.27,3.27,0,0,0-.89-.36,3.72,3.72,0,0,1-1.51-.72,1.52,1.52,0,0,1-.43-1.16,1.69,1.69,0,0,1,.57-1.4,2.46,2.46,0,0,1,1.56-.46,9.8,9.8,0,0,1,1.73.19l.33.06-.1,1a17.85,17.85,0,0,0-1.83-.14" transform="translate(-370.28 -306.38)"/><path class="cls-2" d="M461.33,362.11a3,3,0,0,1-4,0,4,4,0,0,1-.58-2.43,4.16,4.16,0,0,1,.58-2.45,2.9,2.9,0,0,1,4,0,4.16,4.16,0,0,1,.58,2.45,4,4,0,0,1-.58,2.43m-3-.8a1.07,1.07,0,0,0,1,.48,1,1,0,0,0,1-.48,3.53,3.53,0,0,0,.28-1.62,3.71,3.71,0,0,0-.28-1.65,1.26,1.26,0,0,0-2,0,5,5,0,0,0,0,3.27" transform="translate(-370.28 -306.38)"/><polygon class="cls-2" points="98.57 56.4 95.02 56.4 95.02 50.16 96.28 50.16 96.28 55.28 98.57 55.28 98.57 56.4"/><path class="cls-2" d="M473.09,360.7a1.12,1.12,0,0,0,2.23,0v-4.17h1.26v4.14a2.13,2.13,0,0,1-.59,1.68,3.22,3.22,0,0,1-3.57,0,2.14,2.14,0,0,1-.6-1.68v-4.14h1.27Z" transform="translate(-370.28 -306.38)"/><polygon class="cls-2" points="109.35 51.27 109.35 50.15 113.94 50.15 113.94 51.27 112.29 51.27 112.29 56.4 111.02 56.4 111.02 51.27 109.35 51.27"/><rect class="cls-2" x="117.04" y="50.15" width="1.27" height="6.25"/><path class="cls-2" d="M496.56,362.11a2.32,2.32,0,0,1-2,.78,2.36,2.36,0,0,1-2-.78,4,4,0,0,1-.58-2.43,4.16,4.16,0,0,1,.58-2.45,2.31,2.31,0,0,1,2-.81,2.28,2.28,0,0,1,2,.81,4.15,4.15,0,0,1,.59,2.45,4,4,0,0,1-.59,2.43m-3-.8a1.31,1.31,0,0,0,2,0,3.55,3.55,0,0,0,.27-1.62,3.73,3.73,0,0,0-.27-1.65,1.26,1.26,0,0,0-2,0,5,5,0,0,0,0,3.27" transform="translate(-370.28 -306.38)"/><polygon class="cls-2" points="130.25 56.4 130.25 50.16 132.39 50.16 133.9 55.3 133.99 55.3 133.99 50.16 135.26 50.16 135.26 56.4 133.17 56.4 131.61 51.26 131.52 51.26 131.52 56.4 130.25 56.4"/><path class="cls-2" d="M511.11,357.53c-.66,0-1,.22-1,.66a.53.53,0,0,0,.25.45,7.28,7.28,0,0,0,1.16.45,3.32,3.32,0,0,1,1.29.66,1.6,1.6,0,0,1,.36,1.15,1.88,1.88,0,0,1-.59,1.49,2.38,2.38,0,0,1-1.57.5,8.48,8.48,0,0,1-1.75-.22l-.33-.06.13-1a15.57,15.57,0,0,0,1.88.17c.65,0,1-.27,1-.81a.53.53,0,0,0-.22-.46,3.23,3.23,0,0,0-.9-.36,3.6,3.6,0,0,1-1.5-.72,1.53,1.53,0,0,1-.44-1.16,1.69,1.69,0,0,1,.57-1.4,2.47,2.47,0,0,1,1.57-.46,9.7,9.7,0,0,1,1.72.19l.33.06-.1,1a17.47,17.47,0,0,0-1.83-.14" transform="translate(-370.28 -306.38)"/><path class="cls-2" d="M453,335.27h2.08v13.88H453v-1a7.9,7.9,0,0,1-4.11,1.25c-1.89,0-3.14-.49-3.76-1.47s-.93-2.79-.93-5.44v-7.24h2.08v7.21a10.29,10.29,0,0,0,.53,4.06c.35.68,1.15,1,2.39,1a6.73,6.73,0,0,0,1.86-.26,9.39,9.39,0,0,0,1.44-.51l.5-.25Z" transform="translate(-370.28 -306.38)"/><path class="cls-2" d="M459.52,349.14h-2.09V335.27h2.06v1a8.79,8.79,0,0,1,4.3-1.25c1.85,0,3.1.5,3.73,1.5s1,2.77,1,5.33v7.32h-2.05v-7.27a9.34,9.34,0,0,0-.57-3.95,2.49,2.49,0,0,0-2.43-1.07,7.44,7.44,0,0,0-1.87.26,9.3,9.3,0,0,0-1.52.52l-.52.25Z" transform="translate(-370.28 -306.38)"/><polygon class="cls-2" points="100.37 28.89 102.45 28.89 105.25 40.96 105.7 40.96 109 29.16 111.17 29.16 114.47 40.96 114.94 40.96 117.72 28.89 119.8 28.89 116.5 42.77 113.03 42.77 110.08 31.91 107.14 42.77 103.67 42.77 100.37 28.89"/><path class="cls-2" d="M501,339.46v7.1c.06.69.59,1.1,1.61,1.23l-.08,1.63a4.48,4.48,0,0,1-3.3-1.11,12.27,12.27,0,0,1-5,1.11,3.79,3.79,0,0,1-2.92-1.08,4.45,4.45,0,0,1-1-3.11,3.91,3.91,0,0,1,1-3,5.47,5.47,0,0,1,3.22-1.18l4.36-.42v-1.19a2.78,2.78,0,0,0-.61-2,2.24,2.24,0,0,0-1.67-.61,38.71,38.71,0,0,0-4.6.28l-.86.08-.09-1.58a27.79,27.79,0,0,1,5.42-.61,3.87,3.87,0,0,1,4.49,4.47m-8.55,5.66c0,1.7.71,2.55,2.11,2.55a11.36,11.36,0,0,0,3.72-.63l.64-.23v-4.58l-4.11.39a2.73,2.73,0,0,0-1.8.72,2.57,2.57,0,0,0-.56,1.78" transform="translate(-370.28 -306.38)"/><path class="cls-2" d="M511.26,335c1.86,0,3.17.53,3.92,1.59s1.13,2.93,1.13,5.6-.47,4.54-1.41,5.62-2.65,1.62-5.14,1.62c-.78,0-2.07-.07-3.86-.22l-.78-.08V329.21h2.05V336a9.73,9.73,0,0,1,4.09-1m-1.53,12.57c1.81,0,3-.41,3.59-1.23a7.44,7.44,0,0,0,.88-4.18,8.61,8.61,0,0,0-.7-4.12,2.61,2.61,0,0,0-2.47-1.18,9.64,9.64,0,0,0-3.3.61l-.56.19v9.77c1.21.1,2.06.14,2.56.14" transform="translate(-370.28 -306.38)"/><rect class="cls-2" x="149.61" y="22.83" width="2.08" height="19.93"/><path class="cls-2" d="M535.57,347.42l.8-.08.06,1.64a40.72,40.72,0,0,1-5.41.44c-2,0-3.42-.58-4.25-1.73a9.36,9.36,0,0,1-1.25-5.4q0-7.31,5.8-7.3a5.28,5.28,0,0,1,4.19,1.57q1.4,1.56,1.39,4.92l-.11,1.59h-9.16a5.73,5.73,0,0,0,.83,3.41,3.42,3.42,0,0,0,2.9,1.11c1.38,0,2.78-.06,4.21-.17m-.75-6a6,6,0,0,0-.82-3.61,3.16,3.16,0,0,0-2.66-1.05,3.43,3.43,0,0,0-2.78,1.11,5.6,5.6,0,0,0-1,3.55Z" transform="translate(-370.28 -306.38)"/><path class="cls-2" d="M441.07,340.46a5.24,5.24,0,0,0-1.25-1.28,4.86,4.86,0,0,0-1.57-.8c-.27-.08-.32-.19-.2-.43l.23-.46c.89-1.8,4.16-8.37,4.4-8.82H432a6.38,6.38,0,0,0-2.51.55,5.35,5.35,0,0,0-1.34.88,5.47,5.47,0,0,0-1.37,1.82,4.32,4.32,0,0,0-.46,1.6,5.87,5.87,0,0,0,.33,2.84,7.29,7.29,0,0,0,.65,1.2,5.8,5.8,0,0,0,1.86,1.66c.18.1.29.06.38-.12s.33-.59.46-.89.28-.56-.18-.73l-.09-.06a3.87,3.87,0,0,1-1.49-2.08,3.69,3.69,0,0,1,0-1.95,3.79,3.79,0,0,1,1.16-1.91,3.37,3.37,0,0,1,2.06-.93c.88-.07,3.49,0,3.62,0l-4.68,9.4-4.68,9.41H436a8,8,0,0,0,1.54-.1,5.79,5.79,0,0,0,2.14-.85,5.47,5.47,0,0,0,1.64-1.71,5.16,5.16,0,0,0,.77-2.14,5.58,5.58,0,0,0-.31-2.8,5.74,5.74,0,0,0-.66-1.25m-4-9.95h2.64l-3.13,6.31c-.33.64-.55,1.08-.59,1.13a.45.45,0,0,1-.29.12h-2.39Zm3.13,14a3.92,3.92,0,0,1-1.47,2.22,3.64,3.64,0,0,1-1.42.63c-.63.13-3.77.1-4,.1l3.25-6.54H434.5l-3.23,6.49,0,.05h-2.62l3.77-7.58h4.06a3.81,3.81,0,0,1,2.12.63,4.06,4.06,0,0,1,1.23,1.31,3.83,3.83,0,0,1,.45,1.32,3.19,3.19,0,0,1-.06,1.37" transform="translate(-370.28 -306.38)"/><text class="cls-3" transform="translate(168.09 33.29)">®</text></svg>