<svg id="Camada_1" data-name="Camada 1" xmlns="http://www.w3.org/2000/svg" viewBox="0 0 40 23.1"><defs><style>.cls-1{fill:#e43d30;}</style></defs><title>solarmodules_red</title><path class="cls-1" d="M440.89,307.82h0c-1.2-7-2.49-13.95-3.74-20.92-.14-.74-.34-.94-1-.94h-30.4c-.62,0-.83.2-1,.93-.94,5.21-1.9,10.42-2.82,15.64-.29,1.67-.71,4.18-.9,5.31l-.1.55a.67.67,0,0,0,.09.46.46.46,0,0,0,.37.21h4.37a.75.75,0,0,0,.75-.87c0-.54-.3-.79-.76-.79h-3.21c.32-1.78.61-3.48.95-5.17,0-.14.32-.28.49-.28,1.82,0,3.64,0,5.46,0h4.7c-.11,1.82-.22,3.61-.33,5.46h-4.83c-.45,0-.72.24-.77.77a.79.79,0,0,0,.74.9h31.5a.43.43,0,0,0,.36-.21.62.62,0,0,0,.1-.46Zm-24.36-20.14h8.92c.1,1.77.21,3.54.33,5.37H416.2c.11-1.81.22-3.57.33-5.37m-.43,7.1h9.77c.11,1.79.22,3.58.33,5.41H415.78c.11-1.81.21-3.58.32-5.41m-1.78,5.4h-10.4c.32-1.8.64-3.57,1-5.39h9.77c-.11,1.81-.22,3.58-.33,5.39m.43-7.13H405.2c.32-1.8.64-3.58,1-5.39h8.9c-.11,1.81-.21,3.58-.32,5.39m.6,14.28c.11-1.81.22-3.59.32-5.39h10.64c.1,1.8.21,3.58.32,5.39Zm11.55-19.66h8.91c.32,1.78.64,3.56,1,5.38h-9.55c-.11-1.77-.22-3.55-.33-5.38m.42,7.11h9.77l1,5.39h-10.4c-.11-1.76-.22-3.55-.34-5.39m.43,7.13h10.07c.41,0,.59.08.67.61.23,1.5.54,3,.81,4.48,0,.1,0,.2,0,.35H428.09c-.11-1.79-.22-3.56-.34-5.43" transform="translate(-401 -285.95)"/></svg>