<svg id="Camada_1" data-name="Camada 1" xmlns="http://www.w3.org/2000/svg" viewBox="0 0 55 55.07"><defs><style>.cls-1{fill:#e43d30;}</style></defs><title>col_4</title><path class="cls-1" d="M442.76,348.12c.21-10.77,5-18.88,14.35-24.17a26.17,26.17,0,0,1,16.13-3.11,27.54,27.54,0,0,1,12.37,4.57,2.14,2.14,0,0,1,.74,3,2.09,2.09,0,0,1-3,.58,23.92,23.92,0,0,0-7.29-3.31,22.66,22.66,0,0,0-19.48,3.68,23.21,23.21,0,0,0,8.54,41.42,22.8,22.8,0,0,0,16.12-2.26c.34-.18.68-.38,1-.55a2.14,2.14,0,0,1,2.08,3.73,39.49,39.49,0,0,1-5.16,2.4,26.71,26.71,0,0,1-18,0,27.17,27.17,0,0,1-15.49-13.41,26.55,26.55,0,0,1-2.9-9.77c-.09-.95,0-1.92,0-2.88" transform="translate(-442.73 -320.65)"/><path class="cls-1" d="M470.5,358.72a5.85,5.85,0,0,1-4.16-1.68q-5.49-5.19-11-10.39a2.16,2.16,0,1,1,3-3.11c1.51,1.41,3,2.84,4.5,4.27l6.19,5.87c1.07,1,1.66,1,2.57-.17l22.05-27.43a2.23,2.23,0,0,1,2.48-.92,2.16,2.16,0,0,1,1,3.49c-.88,1.13-1.8,2.24-2.69,3.35q-9.75,12.12-19.47,24.23a5.94,5.94,0,0,1-4.46,2.49" transform="translate(-442.73 -320.65)"/><path class="cls-1" d="M497.73,348.32a28.14,28.14,0,0,1-4.61,14.94A2.18,2.18,0,0,1,490,364a2.11,2.11,0,0,1-.58-3,25.58,25.58,0,0,0,3-6.62,23.58,23.58,0,0,0,.23-11.77,3.3,3.3,0,0,1,0-1.5,2,2,0,0,1,2-1.45,2.06,2.06,0,0,1,2,1.59,28.07,28.07,0,0,1,.59,3c.17,1.33.24,2.68.36,4" transform="translate(-442.73 -320.65)"/></svg>