<svg id="Camada_1" data-name="Camada 1" xmlns="http://www.w3.org/2000/svg" viewBox="0 0 55 58.09"><defs><style>.cls-1{fill:#e43d30;}</style></defs><title>col_2</title><path class="cls-1" d="M496.76,375h-2.48V338.89a3.06,3.06,0,0,0-3-3.05h-5.56a3,3,0,0,0-3.05,3.05V375H476.3V355.26a3.06,3.06,0,0,0-3.05-3.05h-5.56a3,3,0,0,0-3.05,3.05V375h-6.32V364.79a3.06,3.06,0,0,0-3.05-3.05h-5.56a3.06,3.06,0,0,0-3,3.05V375H444a1.14,1.14,0,0,0,0,2.27h52.73a1.14,1.14,0,1,0,0-2.27m-40.71,0h-7.12V364.79a.78.78,0,0,1,.78-.78h5.56a.78.78,0,0,1,.78.78Zm18,0h-7.12V355.26a.77.77,0,0,1,.78-.78h5.56a.78.78,0,0,1,.78.78Zm18,0h-7.13V338.89a.79.79,0,0,1,.79-.78h5.56a.78.78,0,0,1,.78.78Z" transform="translate(-442.9 -319.2)"/><path class="cls-1" d="M494.27,320.4a1.12,1.12,0,0,0-1.19-1.19h-6.91a1.14,1.14,0,1,0,0,2.27h4.23l-11.21,11.22L475,328.46a1.14,1.14,0,0,0-.8-.33,1.18,1.18,0,0,0-.81.33L453,348.85a1.15,1.15,0,0,0,0,1.61,1.13,1.13,0,0,0,1.6,0l19.6-19.6,4.23,4.24a1.13,1.13,0,0,0,1.6,0l12-12v3.83a1.14,1.14,0,1,0,2.27,0v-6.46a.07.07,0,0,0,0-.05" transform="translate(-442.9 -319.2)"/><path class="cls-1" d="M451.07,353.61a1.14,1.14,0,1,1-1.13-1.13,1.14,1.14,0,0,1,1.13,1.13" transform="translate(-442.9 -319.2)"/></svg>