<svg id="Camada_1" data-name="Camada 1" xmlns="http://www.w3.org/2000/svg" viewBox="0 0 55 55.04"><defs><style>.cls-1{fill:#e43d30;}</style></defs><title>col_3</title><path class="cls-1" d="M481.23,328.13c0-.85,0-1.62,0-2.4,0-1.12,0-2.25.06-3.37a2.11,2.11,0,0,1,4.21.15c.05,1.57,0,3.15,0,4.73v.84h4.26c0-.2,0-.42,0-.63V322.9a2.22,2.22,0,0,1,1.11-2.11,2.08,2.08,0,0,1,3.16,1.67c.08,1.57,0,3.15,0,4.72v.95h1.62a2.16,2.16,0,0,1,2.37,2.36c0,1.84,0,3.68,0,5.52a10.5,10.5,0,0,1-7.93,9.89l-.55.15v.64c0,3.4,0,6.79,0,10.19a18.1,18.1,0,0,1-2.88,10.3,18.07,18.07,0,0,1-26.89,4,17,17,0,0,1-5.29-7.76,1.76,1.76,0,0,0-1.1-1.2,18.78,18.78,0,0,1-5.63-3.3,14,14,0,0,1-4.59-9.36,25.62,25.62,0,0,1,3.52-15.29,45.36,45.36,0,0,1,11.06-13c1.4-1.16,2.47-1,3.62.4a48.44,48.44,0,0,1,7.16,11.89,30.79,30.79,0,0,1,2.63,11.84,18.72,18.72,0,0,1-2.66,10.48,17.65,17.65,0,0,1-1.91,2.4,2.11,2.11,0,0,1-3,.07,2.08,2.08,0,0,1-.13-3c3.11-3.33,3.65-7.4,3.3-11.67-.45-5.41-2.64-10.21-5.47-14.75-.64-1-1.35-2-2-3l-.17-.25c-.94.94-1.86,1.8-2.72,2.72a36.47,36.47,0,0,0-7,10.13,20.37,20.37,0,0,0-1.87,10.8,9.81,9.81,0,0,0,5.7,8.09h.14c0-.69,0-1.37,0-2.06a35.56,35.56,0,0,1,1.39-10.9,2.14,2.14,0,1,1,4.13,1.11,34.36,34.36,0,0,0-1.06,12.52c.48,5.35,3,9.35,7.84,11.77a13.76,13.76,0,0,0,19.64-12.63c0-3.56,0-7.12,0-10.68,0-.36,0-.59-.46-.71a10.47,10.47,0,0,1-7.73-10.13c0-1.71,0-3.43,0-5.15a2.19,2.19,0,0,1,2.44-2.42h1.65m.3,4.32c0,1.39-.09,2.74,0,4.08a6.05,6.05,0,0,0,4.44,5.16,6.29,6.29,0,0,0,6.5-2.12c1.73-2.15,1.26-4.65,1.31-7.12Z" transform="translate(-443.12 -320.46)"/></svg>