<svg id="Camada_1" data-name="Camada 1" xmlns="http://www.w3.org/2000/svg" viewBox="0 0 55 42.59"><defs><style>.cls-1{fill:#e43d30;}</style></defs><title>col_1</title><path class="cls-1" d="M491.83,346.9v5.54H499c1,0,1.34.36,1.35,1.36,0,.85,0,1.69,0,2.64h9c.25,0,.5,0,.75,0a.91.91,0,0,1,.87.95,1,1,0,0,1-.86,1,3.84,3.84,0,0,1-.68,0H468c-.82,0-1.33-.39-1.33-1s.5-1,1.33-1h9.26v-2.33c0-1.41.26-1.67,1.65-1.67h6.88V346.9H462.85c-1.25,0-1.39-.24-1.49-1.48-.28-3.48.7-6.78,1.39-10.12,1.26-6.13,2.58-12.24,3.87-18.36.18-.86.46-1.1,1.32-1.1h41.75c.85,0,1.13.24,1.31,1.1,1.73,8.19,3.5,16.37,5.15,24.58a19.84,19.84,0,0,1,.05,4.56c0,.28-.5.59-.83.79-.18.11-.49,0-.74,0h-22.8Zm-28.44-2h50.84V343H473.06c-.23,0-.45,0-.68,0-.65-.06-1.07-.47-1-1.06a.93.93,0,0,1,1.06-.9h6.63c.15-2.18.3-4.27.46-6.42h-6.46c-2.5,0-5,0-7.5,0-.23,0-.64.16-.68.32-.46,2-.86,4-1.29,6.08H468a.91.91,0,0,1,1,.92.94.94,0,0,1-1,1c-.85,0-1.7,0-2.55,0h-2.07ZM481.07,341h15.48c-.14-2.13-.29-4.21-.44-6.33h-14.6c-.15,2.12-.29,4.2-.44,6.33m17-6.37c.16,2.21.31,4.28.47,6.38H514c0-.17,0-.29,0-.41-.38-1.75-.79-3.49-1.11-5.25-.11-.63-.36-.73-.92-.73-4.34,0-8.69,0-13,0Zm-16-8.37c-.15,2.15-.3,4.23-.44,6.35H496c-.15-2.15-.3-4.24-.45-6.35Zm15.41,0c.16,2.16.32,4.26.47,6.33h14.28c-.46-2.16-.9-4.24-1.34-6.33Zm-30.82,0c-.45,2.14-.88,4.22-1.32,6.34h14.28c.15-2.13.3-4.21.46-6.34Zm15.55-2h13.15c-.16-2.14-.31-4.22-.46-6.31H482.69c-.15,2.12-.3,4.18-.45,6.31m14.69-6.32c.16,2.15.31,4.24.45,6.32H510.5l-1.33-6.32Zm-29.81,6.32h13.12c.15-2.13.3-4.2.44-6.33H468.46l-1.34,6.33m31.25,30.34H479.28v1.88h19.09Zm-10.54-2.13h1.94v-5.46h-1.94Z" transform="translate(-461.31 -315.84)"/></svg>