<svg id="Camada_1" data-name="Camada 1" xmlns="http://www.w3.org/2000/svg" viewBox="0 0 292.99 355"><defs><style>.cls-1{fill:#fff;}</style></defs><title>send_container5</title><path class="cls-1" d="M539.91,322.66a95.51,95.51,0,0,0-21.6-21.9c-8.25-6.1-17-11-26.95-13.79-4.67-1.3-5.55-3.21-3.53-7.36l4-8c15.41-30.83,71.49-143.79,75.68-151.6H383.17a107.32,107.32,0,0,0-43,9.52,91.77,91.77,0,0,0-23.09,15,95.9,95.9,0,0,0-23.5,31.41c-4.18,8.69-7.41,17.8-8,27.43-1,16.55-1.3,33,5.72,48.82,3.23,7.25,6.63,14.31,11.2,20.71a98.06,98.06,0,0,0,31.95,28.5c3,1.72,5,1.11,6.6-2,2.58-5.14,5.56-10.08,7.86-15.33,2.75-6.26,4.74-9.62-3.15-12.55a7.11,7.11,0,0,1-1.46-1c-12.51-9.09-21.41-20.71-25.7-35.78a63.72,63.72,0,0,1-.72-33.42c3.23-13.06,10.13-23.88,20.07-33,10.11-9.25,22.14-15,35.38-15.92,15-1.13,60-.75,62.11-.74L355,313.33C315.84,392,276.67,470.77,274.51,475l177.35-.11c8.81,0,17.53-.07,26.41-1.7A98.37,98.37,0,0,0,515,458.5a92.64,92.64,0,0,0,28.18-29.28c7-11.39,11.87-23.64,13.29-36.87,1.76-16.35,1.28-32.54-5.26-48.2a111.51,111.51,0,0,0-11.33-21.49m-69.26-171,45.46,0L462.22,260.14c-5.56,11-9.47,18.58-10,19.37-.9,1.26-3.24,2-5,2.07l-41.12-.1Zm54,241.07a67.93,67.93,0,0,1-25.35,38.11,62.87,62.87,0,0,1-24.38,11c-10.93,2.07-64.88,1.65-68.63,1.61l55.9-112.34H426.87L371.35,442.62a3.31,3.31,0,0,0-.73.8l-45,0,64.73-130.24c16.4,0,68.34,0,69.84,0,13.15.27,25.37,3.17,36.43,10.76a69.35,69.35,0,0,1,21.18,22.6,65.63,65.63,0,0,1,7.74,22.6,56.38,56.38,0,0,1-1,23.58" transform="translate(-274.51 -120)"/></svg>