<svg id="Camada_1" data-name="Camada 1" xmlns="http://www.w3.org/2000/svg" viewBox="0 0 117.21 34.23"><defs><style>.cls-1,.cls-2{fill:#fff;}.cls-2{isolation:isolate;font-size:6.13px;font-family:Arial-BoldMT, Arial;font-weight:700;}</style></defs><title>logo</title><path class="cls-1" d="M381.6,309.13c-.67,0-1,.22-1,.66a.5.5,0,0,0,.25.45,6.06,6.06,0,0,0,1.16.45,3.33,3.33,0,0,1,1.28.66,1.64,1.64,0,0,1,.37,1.15,1.9,1.9,0,0,1-.6,1.49,2.39,2.39,0,0,1-1.56.5,7.93,7.93,0,0,1-1.76-.22l-.33-.06.13-1a14.76,14.76,0,0,0,1.88.17c.65,0,1-.27,1-.81a.56.56,0,0,0-.23-.46,3.61,3.61,0,0,0-.89-.36,3.65,3.65,0,0,1-1.51-.72,1.48,1.48,0,0,1-.43-1.16,1.66,1.66,0,0,1,.57-1.4,2.41,2.41,0,0,1,1.56-.46,10.07,10.07,0,0,1,1.73.19l.33.06-.1,1c-.61-.08-1.22-.12-1.83-.14" transform="translate(-355.69 -280.27)"/><path class="cls-1" d="M391.3,313.71a3,3,0,0,1-4,0,3.93,3.93,0,0,1-.58-2.43,4.06,4.06,0,0,1,.58-2.45,2.89,2.89,0,0,1,4,0,4.21,4.21,0,0,1,.58,2.45,4.07,4.07,0,0,1-.58,2.43m-3-.8a1.06,1.06,0,0,0,1,.48,1,1,0,0,0,1-.48,3.58,3.58,0,0,0,.28-1.62,3.88,3.88,0,0,0-.28-1.65,1.26,1.26,0,0,0-1.77-.23.84.84,0,0,0-.23.23,5,5,0,0,0,0,3.27" transform="translate(-355.69 -280.27)"/><polygon class="cls-1" points="43.13 34.11 39.58 34.11 39.58 27.87 40.84 27.87 40.84 32.99 43.13 32.99 43.13 34.11"/><path class="cls-1" d="M403.06,312.3a1.11,1.11,0,0,0,1.22,1,1.12,1.12,0,0,0,1-1v-4.17h1.26v4.14A2.17,2.17,0,0,1,406,314a3.22,3.22,0,0,1-3.57,0,2.11,2.11,0,0,1-.6-1.68v-4.14h1.27Z" transform="translate(-355.69 -280.27)"/><polygon class="cls-1" points="53.91 28.98 53.91 27.86 58.5 27.86 58.5 28.98 56.85 28.98 56.85 34.11 55.58 34.11 55.58 28.98 53.91 28.98"/><rect class="cls-1" x="61.6" y="27.86" width="1.27" height="6.25"/><path class="cls-1" d="M426.53,313.71a3,3,0,0,1-4,0,3.93,3.93,0,0,1-.58-2.43,4.06,4.06,0,0,1,.58-2.45,2.31,2.31,0,0,1,2-.81,2.28,2.28,0,0,1,2,.81,4.21,4.21,0,0,1,.59,2.45,4.08,4.08,0,0,1-.59,2.43m-3-.8a1.3,1.3,0,0,0,1.84.15.75.75,0,0,0,.16-.15,3.74,3.74,0,0,0,.27-1.62,3.88,3.88,0,0,0-.27-1.65,1.26,1.26,0,0,0-1.77-.23.84.84,0,0,0-.23.23,5,5,0,0,0,0,3.27" transform="translate(-355.69 -280.27)"/><polygon class="cls-1" points="74.81 34.11 74.81 27.87 76.95 27.87 78.46 33.01 78.55 33.01 78.55 27.87 79.82 27.87 79.82 34.11 77.73 34.11 76.17 28.97 76.08 28.97 76.08 34.11 74.81 34.11"/><path class="cls-1" d="M441.08,309.13c-.66,0-1,.22-1,.66a.53.53,0,0,0,.25.45,7.74,7.74,0,0,0,1.16.45,3.37,3.37,0,0,1,1.29.66,1.65,1.65,0,0,1,.36,1.15,1.92,1.92,0,0,1-.59,1.49,2.36,2.36,0,0,1-1.57.5,8.55,8.55,0,0,1-1.75-.22l-.33-.06.13-1a14.76,14.76,0,0,0,1.88.17c.65,0,1-.27,1-.81a.55.55,0,0,0-.22-.46,3.32,3.32,0,0,0-.9-.36,3.61,3.61,0,0,1-1.5-.72,1.49,1.49,0,0,1-.44-1.16,1.66,1.66,0,0,1,.57-1.4A2.44,2.44,0,0,1,441,308a10.06,10.06,0,0,1,1.72.19l.33.06-.1,1c-.61-.08-1.22-.12-1.83-.14" transform="translate(-355.69 -280.27)"/><path class="cls-1" d="M383,286.87h2.08v13.88H383v-1a7.9,7.9,0,0,1-4.11,1.25c-1.89,0-3.14-.49-3.76-1.47s-.93-2.79-.93-5.44v-7.24h2.08v7.21a10.16,10.16,0,0,0,.53,4.06c.35.68,1.15,1,2.39,1a7,7,0,0,0,1.86-.26,9.49,9.49,0,0,0,1.44-.51l.5-.25Z" transform="translate(-355.69 -280.27)"/><path class="cls-1" d="M389.49,300.74H387.4V286.87h2.06v1a8.8,8.8,0,0,1,4.3-1.25c1.85,0,3.1.5,3.73,1.5s1,2.77,1,5.33v7.32h-2.05V293.5a9.49,9.49,0,0,0-.57-3.95,2.51,2.51,0,0,0-2.43-1.07,7.34,7.34,0,0,0-1.87.26,9.09,9.09,0,0,0-1.52.52l-.52.25Z" transform="translate(-355.69 -280.27)"/><polygon class="cls-1" points="44.93 6.6 47.01 6.6 49.81 18.67 50.26 18.67 53.56 6.87 55.73 6.87 59.03 18.67 59.5 18.67 62.28 6.6 64.36 6.6 61.06 20.48 57.59 20.48 54.64 9.62 51.7 20.48 48.23 20.48 44.93 6.6"/><path class="cls-1" d="M431,291.06v7.1c.06.69.59,1.1,1.61,1.23L432.5,301a4.46,4.46,0,0,1-3.3-1.11,12.19,12.19,0,0,1-5,1.11,3.76,3.76,0,0,1-2.92-1.08,4.39,4.39,0,0,1-1-3.11,3.86,3.86,0,0,1,1-3,5.43,5.43,0,0,1,3.22-1.18l4.36-.42V291a2.83,2.83,0,0,0-.61-2,2.25,2.25,0,0,0-1.67-.61,39.17,39.17,0,0,0-4.6.28l-.86.08-.09-1.58a28.13,28.13,0,0,1,5.42-.61,3.87,3.87,0,0,1,4.48,3.13,4,4,0,0,1,0,1.34m-8.55,5.66c0,1.7.71,2.55,2.11,2.55a11.27,11.27,0,0,0,3.72-.63l.64-.23v-4.58l-4.11.39a2.72,2.72,0,0,0-1.8.72,2.5,2.5,0,0,0-.56,1.78" transform="translate(-355.69 -280.27)"/><path class="cls-1" d="M441.23,286.6c1.86,0,3.17.53,3.92,1.59s1.13,2.93,1.13,5.6-.47,4.54-1.41,5.62-2.65,1.62-5.14,1.62c-.78,0-2.07-.07-3.86-.22l-.78-.08V280.81h2.05v6.79a9.67,9.67,0,0,1,4.09-1m-1.53,12.57c1.81,0,3-.41,3.59-1.23a7.5,7.5,0,0,0,.88-4.18,8.83,8.83,0,0,0-.7-4.12,2.62,2.62,0,0,0-2.47-1.18,9.74,9.74,0,0,0-3.3.61l-.56.19V299c1.21.1,2.06.14,2.56.14" transform="translate(-355.69 -280.27)"/><rect class="cls-1" x="94.17" y="0.54" width="2.08" height="19.93"/><path class="cls-1" d="M465.54,299l.8-.08.06,1.64A41,41,0,0,1,461,301c-2,0-3.42-.58-4.25-1.73a9.27,9.27,0,0,1-1.25-5.4q0-7.31,5.8-7.3a5.29,5.29,0,0,1,4.19,1.57q1.39,1.56,1.39,4.92l-.11,1.59H457.6a5.67,5.67,0,0,0,.83,3.41,3.41,3.41,0,0,0,2.9,1.11c1.38,0,2.78-.06,4.21-.17m-.75-6a6.08,6.08,0,0,0-.82-3.61,3.19,3.19,0,0,0-2.66-1.05,3.42,3.42,0,0,0-2.78,1.11,5.56,5.56,0,0,0-1,3.55Z" transform="translate(-355.69 -280.27)"/><path class="cls-1" d="M371,292.06a5.43,5.43,0,0,0-1.25-1.28,5,5,0,0,0-1.57-.8c-.27-.08-.32-.19-.2-.43l.23-.46c.89-1.8,4.16-8.37,4.4-8.82H362a6.37,6.37,0,0,0-2.51.55,5.45,5.45,0,0,0-1.34.88,5.34,5.34,0,0,0-1.37,1.82,4.09,4.09,0,0,0-.46,1.6,5.72,5.72,0,0,0,.33,2.84,6.34,6.34,0,0,0,.65,1.2,5.7,5.7,0,0,0,1.86,1.66c.18.1.29.06.38-.12s.33-.59.46-.89.28-.56-.18-.73l-.09-.06a3.82,3.82,0,0,1-1.49-2.08,3.59,3.59,0,0,1,0-1.95,3.76,3.76,0,0,1,1.16-1.91,3.3,3.3,0,0,1,2.06-.93c.88-.07,3.49,0,3.62,0l-4.68,9.4L355.69,301H366a8,8,0,0,0,1.54-.1,5.93,5.93,0,0,0,2.14-.85,5.58,5.58,0,0,0,1.64-1.71,5.3,5.3,0,0,0,.77-2.14,5.69,5.69,0,0,0-.31-2.8,6,6,0,0,0-.66-1.25m-4-9.95h2.64l-3.13,6.31c-.33.64-.55,1.08-.59,1.13a.47.47,0,0,1-.29.12h-2.39Zm3.13,14a4,4,0,0,1-1.47,2.22,3.63,3.63,0,0,1-1.42.63c-.63.13-3.77.1-4,.1l3.25-6.54h-2.11l-3.23,6.49v.05h-2.62l3.77-7.58h4.06a3.9,3.9,0,0,1,2.12.63,4.16,4.16,0,0,1,1.23,1.31,3.9,3.9,0,0,1,.45,1.32,3.33,3.33,0,0,1-.06,1.37" transform="translate(-355.69 -280.27)"/><text class="cls-2" transform="translate(112.65 11)">®</text></svg>