<svg id="Camada_1" data-name="Camada 1" xmlns="http://www.w3.org/2000/svg" viewBox="0 0 200 168.76"><defs><style>.cls-1{fill:#fff;}</style></defs><title>batteries</title><path class="cls-1" d="M516.12,357.88l-.54,0c-.3,0-.6,0-.9,0H455q-63.88,0-127.76,0c-3.91,0-5.13-1.1-5.9-3a4.52,4.52,0,0,1,.49-4.13,4.38,4.38,0,0,1,3.43-2.16c.89-.05,1.86-.07,3-.07l2.61,0,2.88,0h3.24V214.93h-5.63l-2.25,0c-1,0-1.88,0-2.67,0-2.86-.1-4.84-1.56-5.43-4a4.85,4.85,0,0,1,2.62-5.1,7.74,7.74,0,0,1,3.1-.51c3.48,0,7.19-.05,12-.05h18.52v-5.79c0-1.79,0-3.47,0-5.15.05-3.36,1.83-5.14,5.15-5.16,3.93,0,7.87,0,11.8,0s7.76,0,11.64,0c4.18,0,5.1,2.83,5.14,5.18,0,1.64,0,3.28,0,5,0,.81,0,1.63,0,2.47v3.24h59.75v-5.44c0-1.63,0-3.29,0-4.95,0-3.75,1.77-5.51,5.46-5.53,3.89,0,7.79,0,11.69,0s7.53,0,11.3,0c3.46,0,5.24,1.78,5.29,5.25,0,1.63,0,3.28,0,5,0,.83,0,1.69,0,2.58v3.24h19.94c3.81,0,7.61,0,11.42,0a4.5,4.5,0,0,1,4.68,3.34,3.7,3.7,0,0,1-1.15,4.61c-1.36,1.07-4,1.52-4.82,1.67a12.84,12.84,0,0,1-2.13.14c-.66,0-1.33,0-2,0s-1.62-.06-2.5-.06h-3.24v23.81q0,23.34,0,46.69a4.73,4.73,0,0,1-6.73,4.7,4.65,4.65,0,0,1-2.91-4.75q0-23.83,0-47.65V215.06H347V348.35H495.12V337.6c0-4,0-8,0-11.93a4.83,4.83,0,1,1,9.63,0c0,4.48,0,9,0,13.55v9.33H508l2.67,0h2.51c1.19,0,2.16,0,3.06,0,2.09.07,3.42,1.06,4.33,3.21a3.72,3.72,0,0,1-1,4.59,9.31,9.31,0,0,1-2.79,1.33l-.62.23h-.06Z" transform="translate(-320.98 -189.12)"/><path class="cls-1" d="M461,328a5.71,5.71,0,0,1-1.42-.2,6.92,6.92,0,0,1-3.15-2.17c-2.1-2.51-4-5.14-6-7.93-.82-1.12-1.64-2.25-2.48-3.38l-1.59-2.13-2.41,1.15a41.6,41.6,0,0,1-18,4.32,38.88,38.88,0,0,1-10.24-1.41c-8.47-2.34-15.83-7.67-22.49-16.32-8.1-10.52-13.15-23.3-15.44-39.06A183.14,183.14,0,0,1,376.36,242a4.7,4.7,0,0,1,1.18-3.56,5,5,0,0,1,3.7-1.38c18.67.09,34.31,3.58,47.85,10.67,11,5.78,18.87,13.3,23.93,23,4.86,9.29,5.06,19.07.62,29.09a6.58,6.58,0,0,0,.8,7.4c3.21,4.09,6.51,8.52,9.81,13.15a4.48,4.48,0,0,1,.1,5.61A3.92,3.92,0,0,1,461,328m-74.62-77.87c0,.56,0,1.06,0,1.52a16.33,16.33,0,0,0,.22,3c.3,1.55.59,3.11.88,4.67.8,4.37,1.63,8.9,2.85,13.31,3.21,11.74,8.63,20.87,16.56,27.92a26.6,26.6,0,0,0,18,7.18,33,33,0,0,0,10.47-1.84l6-2-5.21-3.68-.67-.46a10,10,0,0,1-.93-.67q-3.33-2.89-6.62-5.81c-3.9-3.43-7.92-7-11.93-10.42-2-1.74-3.39-4.58-1.19-7.37a4.4,4.4,0,0,1,3.51-1.71,6.12,6.12,0,0,1,3.79,1.46c2.68,2.18,5,4.14,7.14,6,2.76,2.41,5.55,4.9,8.25,7.3l4.82,4.27,5.14-1.19-.27-2.82c-.07-.79-.11-1.61-.16-2.46a30.92,30.92,0,0,0-.78-6.3c-2.13-8.05-7.81-13.66-12.51-17.65-7-6-15.56-9.89-27.65-12.73-3.62-.85-7.18-1.4-10.95-2-1.66-.26-3.35-.52-5.05-.81l-4-.68Z" transform="translate(-320.98 -189.12)"/></svg>