<svg id="Camada_1" data-name="Camada 1" xmlns="http://www.w3.org/2000/svg" viewBox="0 0 80.25 80"><defs><style>.cls-1{fill:#e43d30;}</style></defs><title>costumers</title><path class="cls-1" d="M432.3,289.65c1.41.65,2.75,1.23,4.06,1.88a32.83,32.83,0,0,1,12.29,11,3.12,3.12,0,0,1-5.11,3.57,29.12,29.12,0,0,0-6.41-6.7,26.88,26.88,0,0,0-18.69-5.26,26.42,26.42,0,0,0-16.7,7.73,38.67,38.67,0,0,0-3.38,4c-1.34,1.72-3.21,2.09-4.74.86a3.06,3.06,0,0,1-.64-4.1,33,33,0,0,1,14.64-12.2c.6-.27,1.22-.5,1.82-.74a.85.85,0,0,0,.18-.15A17.55,17.55,0,0,1,403.43,274a17.32,17.32,0,0,1,6.21-11.62c6.74-5.85,17.73-5.29,23.95,1.11a17.89,17.89,0,0,1-1.29,26.18M421,287.37A11.43,11.43,0,1,0,409.56,276,11.48,11.48,0,0,0,421,287.37" transform="translate(-380.87 -258.3)"/><path class="cls-1" d="M385.78,320.91c1,0,2,0,3,0a1.9,1.9,0,0,0,1.94-1.53c.47-1.54,1-3.07,1.47-4.6.4-1.25,1-1.81,2-1.82s1.67.55,2.09,1.85.92,2.9,1.39,4.34.9,1.77,2.39,1.79c1.65,0,3.29,0,4.93,0s2.11.39,2.44,1.47-.07,1.84-1.18,2.64c-1.28.93-2.58,1.84-3.86,2.77a2.15,2.15,0,0,0-.91,2.93c.51,1.5,1,3,1.55,4.48.43,1.26.26,2.1-.53,2.66a2.24,2.24,0,0,1-2.81-.2l-3.9-2.84a2.26,2.26,0,0,0-3.1,0l-4,2.9a2.24,2.24,0,0,1-2.81.15c-.75-.56-.92-1.4-.51-2.6.49-1.43,1-2.87,1.49-4.3.58-1.68.38-2.29-1.09-3.34l-3.78-2.7a2.2,2.2,0,0,1-1-2.55c.34-1,.94-1.41,2.2-1.44h2.6v0" transform="translate(-380.87 -258.3)"/><path class="cls-1" d="M439.36,320.9c1,0,2,0,3,0a1.86,1.86,0,0,0,1.87-1.5c.53-1.68,1-3.36,1.62-5a2,2,0,0,1,3.3-.84,3.25,3.25,0,0,1,.62,1.16c.5,1.47,1,2.95,1.43,4.43s.89,1.78,2.38,1.81,3.28,0,4.92,0,2.11.37,2.47,1.45-.06,1.86-1.16,2.64l-3.78,2.71a2.22,2.22,0,0,0-1,3.07c.52,1.49,1.05,3,1.56,4.47.41,1.2.23,2-.53,2.59a2.22,2.22,0,0,1-2.8-.16l-3.83-2.8a2.36,2.36,0,0,0-3.33,0l-3.83,2.8a2.24,2.24,0,0,1-2.8.19c-.79-.57-.95-1.41-.52-2.67.51-1.49,1-3,1.55-4.48a2.16,2.16,0,0,0-.93-2.93l-4-2.87a2.2,2.2,0,0,1-1-2.54c.32-1,.95-1.44,2.28-1.46h2.5v0" transform="translate(-380.87 -258.3)"/><path class="cls-1" d="M412.68,309.94c.93,0,1.86,0,2.78,0a1.76,1.76,0,0,0,2-1.47c.54-1.61,1.06-3.23,1.6-4.84a2,2,0,0,1,3.94,0q.78,2.34,1.54,4.68c.45,1.34.84,1.64,2.28,1.66h4.92c1.48,0,2.14.39,2.48,1.45s0,1.82-1.13,2.64-2.57,1.85-3.84,2.78a2.14,2.14,0,0,0-.94,2.93c.52,1.53,1.05,3,1.57,4.57.41,1.22.24,2-.55,2.58a2.2,2.2,0,0,1-2.8-.16l-4-2.9a2.19,2.19,0,0,0-3,0l-4.05,3a2.18,2.18,0,0,1-2.73.12c-.8-.6-1-1.37-.57-2.58.51-1.52,1.05-3,1.57-4.56a2.15,2.15,0,0,0-.92-2.94c-1.32-1-2.66-1.91-4-2.88a2.09,2.09,0,0,1-1-2.54c.32-1,1-1.45,2.29-1.46h2.59Z" transform="translate(-380.87 -258.3)"/></svg>