<svg id="Camada_1" data-name="Camada 1" xmlns="http://www.w3.org/2000/svg" viewBox="0 0 83.37 80"><defs><style>.cls-1{fill:#e43d30;}</style></defs><title>projects</title><path class="cls-1" d="M411.35,294.79c0-1,0-2,0-2.94,0-1.74,0-3.48,0-5.21a3.25,3.25,0,0,1,3.28-3.34,3.22,3.22,0,0,1,3.23,3.36c0,2.45,0,4.89,0,7.34,0,.64.17.88.84.87,1.85,0,3.7,0,5.67,0v-1.12c0-2.33,0-4.65,0-7a3.28,3.28,0,0,1,3.26-3.45,3.23,3.23,0,0,1,3.26,3.43c0,2.42,0,4.84,0,7.26,0,.61.13.86.81.88a3.16,3.16,0,0,1,3.26,3.41,67.3,67.3,0,0,1-.22,9.1c-.8,5.62-4.16,9.34-9.51,11.2a1.22,1.22,0,0,0-1,1.43c0,2.66,0,5.33,0,8a9.76,9.76,0,0,1-9.92,10c-4.59,0-9.18.05-13.77,0a13,13,0,0,1-13.1-13.21q0-13.26,0-26.52v-1.08l-.2-.12c-.8.79-1.58,1.59-2.39,2.36a3.28,3.28,0,0,1-3.71.64,3.05,3.05,0,0,1-1.81-3.17,4.31,4.31,0,0,1,1.07-2.18q13.08-13.17,26.25-26.25c2.39-2.39,4.79-4.76,7.16-7.17,4.3-4.36,10.3-4.34,14.62,0q16.47,16.6,33,33.2a3.39,3.39,0,0,1,1.16,3.34,3.24,3.24,0,0,1-5.43,1.6c-.83-.78-1.58-1.64-2.37-2.46l-.26.1v.95c0,3.44,0,6.88,0,10.33a3.29,3.29,0,0,1-3.2,3.58,3.32,3.32,0,0,1-3.32-3.59c0-5.74,0-11.48,0-17.21a2.29,2.29,0,0,0-.56-1.45Q435.66,277.83,423.88,266c-.92-.93-1.91-1.65-3.27-1.33a3.76,3.76,0,0,0-1.77.91q-12.22,12.12-24.37,24.3a1.86,1.86,0,0,0-.48,1.21q0,16.89,0,33.78a6.41,6.41,0,0,0,6.57,6.62c4.55,0,9.11,0,13.67,0a3.24,3.24,0,0,0,3.49-3.5c0-2.76,0-5.52,0-8.28a.9.9,0,0,0-.76-1,13.92,13.92,0,0,1-10-13.61q0-3.26,0-6.51c0-2.43,1.19-3.64,3.65-3.71.18,0,.36,0,.72,0m2.19,6.63c0,1.61-.09,3.1,0,4.57a7.41,7.41,0,0,0,10.5,6.07c4.53-2.19,4.74-6,4.22-10.64Z" transform="translate(-379.3 -258.04)"/><path class="cls-1" d="M437.43,338c-1.61,0-3.22.05-4.83,0a3.2,3.2,0,0,1-3.11-2.7,3.15,3.15,0,0,1,1.87-3.49,4.72,4.72,0,0,1,1.72-.3c2.63,0,5.27,0,7.9,0,4.16,0,6.73-2.43,7-6.58a3.27,3.27,0,0,1,3.34-3.18,3.21,3.21,0,0,1,3.17,3.4A13,13,0,0,1,441.8,338c-1.45.05-2.91,0-4.37,0" transform="translate(-379.3 -258.04)"/></svg>