<svg id="Camada_1" data-name="Camada 1" xmlns="http://www.w3.org/2000/svg" viewBox="0 0 80 79.97"><defs><style>.cls-1{fill:#e43d30;}</style></defs><title>watts</title><path class="cls-1" d="M392.17,279.89h3.94a3.13,3.13,0,1,1,0,6.24c-2.41,0-4.82,0-7.23,0a7.8,7.8,0,0,1-7.87-7.89c0-2.41,0-4.82,0-7.23a3.13,3.13,0,1,1,6.25,0c0,1.51,0,3,0,4.75.28-.36.44-.54.58-.75,6.68-9.66,15.85-15.52,27.44-17.2a40,40,0,0,1,44.89,31.58,59.25,59.25,0,0,1,.79,7.88,3.06,3.06,0,0,1-3,3.19,3.13,3.13,0,0,1-3.19-3.15,33,33,0,0,0-7.22-20.75c-5.67-7.13-13-11.56-22.13-12.59-14.05-1.58-25,3.84-32.95,15.41a5.34,5.34,0,0,0-.25.48" transform="translate(-380.98 -257.38)"/><path class="cls-1" d="M449.47,314.88h-3.82a3.13,3.13,0,1,1,0-6.25c2.5,0,5,0,7.5,0a7.8,7.8,0,0,1,7.82,7.84c0,2.41,0,4.82,0,7.23a3.12,3.12,0,1,1-6.24,0c0-1.54,0-3.09,0-4.64,0,0,0,0-.11-.13-.52.72-1,1.44-1.54,2.14-6.5,8.63-15.05,14.07-25.73,15.75-13.51,2.11-25.24-1.73-34.93-11.44a38.51,38.51,0,0,1-11.05-23c-.2-1.59-.28-3.2-.33-4.8a3.14,3.14,0,0,1,3.1-3.33,3.17,3.17,0,0,1,3.14,3.29c.29,11.58,5.12,20.84,14.53,27.55A32,32,0,0,0,423.36,331a33.4,33.4,0,0,0,22.2-10.7c1.51-1.58,2.74-3.43,4.09-5.15Z" transform="translate(-380.98 -257.38)"/><path class="cls-1" d="M430.17,280.06,422,293.23c.36,0,.61.07.85.07,1.94,0,3.87,0,5.8,0a2.45,2.45,0,0,1,2,4.26L420.79,309q-3,3.48-6,7c-.29.34-.56.78-.93.93a2.38,2.38,0,0,1-1.47,0c-.14,0-.21-.86-.06-1.22,1.69-4,3.43-8,5.16-11.94.27-.62.53-1.25.86-2h-3.12c-1,0-2,0-2.94,0a3.22,3.22,0,0,1-2.78-5.05c2-3.31,3.86-6.69,5.79-10,1.15-2,2.29-4,3.47-6a1.13,1.13,0,0,1,.77-.56c3.47,0,6.95,0,10.61,0" transform="translate(-380.98 -257.38)"/></svg>