<?xml version="1.0" encoding="utf-8"?>
<!-- Generator: Adobe Illustrator 24.0.1, SVG Export Plug-In . SVG Version: 6.00 Build 0)  -->
<svg version="1.1" id="Camada_1" xmlns="http://www.w3.org/2000/svg" xmlns:xlink="http://www.w3.org/1999/xlink" x="0px" y="0px"
	 viewBox="0 0 40 40" style="enable-background:new 0 0 40 40;" xml:space="preserve">
<style type="text/css">
	.st0{fill:#FFFFFF;}
</style>
<title>inverters_2</title>
<path class="st0" d="M9.4,11.1l0.9,0c0.3,0,0.7-0.2,0.7-0.5c0-0.1,0-0.1,0-0.2l-0.1-1.7c0-0.3,0.1-0.6,0.4-0.8l2.4-1.4
	c0.3-0.2,0.6-0.1,0.9,0.1l1.5,1c0.3,0.2,0.7,0.1,0.9-0.2c0,0,0-0.1,0.1-0.1c0.3-0.5,0.5-1,0.8-1.5c0.1-0.3,0.5-0.6,0.8-0.5
	c0.9,0,1.7,0,2.6,0c0.4,0,0.7,0.2,0.8,0.5c0.2,0.5,0.5,1,0.7,1.4c0.1,0.4,0.5,0.6,0.9,0.4c0.1,0,0.2-0.1,0.2-0.1
	c0.5-0.3,1-0.6,1.4-0.9c0.3-0.2,0.6-0.2,0.9-0.1L28.7,8c0.3,0.2,0.4,0.5,0.4,0.8L29,10.5c-0.1,0.3,0.2,0.7,0.5,0.7
	c0.1,0,0.1,0,0.2,0l1.7-0.1c0.3,0,0.6,0.1,0.8,0.4l1.4,2.3c0.2,0.3,0.2,0.7,0,1c-0.3,0.5-0.6,1-1,1.5c-0.2,0.3-0.2,0.7,0.1,1
	c0,0,0.1,0,0.1,0c0.4,0.3,0.9,0.5,1.3,0.8c0.3,0.1,0.5,0.5,0.5,0.8c0,0.9,0,1.7,0,2.6c0,0.3-0.2,0.5-0.4,0.7
	c-0.4,0.3-0.8,0.5-1.3,0.8c-0.4,0.1-0.5,0.5-0.4,0.9c0,0.1,0.1,0.2,0.2,0.3c0.3,0.5,0.6,0.9,0.9,1.4c0.2,0.3,0.2,0.6,0,0.9
	c-0.5,0.8-0.9,1.6-1.5,2.4c-0.2,0.2-0.5,0.3-0.8,0.3c-0.6,0-1.2,0-1.8-0.1c-0.3,0-0.6,0.2-0.7,0.6c0,0,0,0.1,0,0.1
	c0,0.6,0,1.2,0.1,1.7c0,0.3-0.1,0.6-0.4,0.8l-2.4,1.4c-0.3,0.2-0.6,0.1-0.9-0.1c-0.5-0.3-1-0.6-1.5-1c-0.3-0.2-0.7-0.1-0.9,0.2
	c0,0,0,0.1-0.1,0.1c-0.3,0.5-0.5,1-0.8,1.5c-0.1,0.3-0.5,0.6-0.8,0.5c-0.9,0-1.7,0-2.6,0c-0.4,0-0.7-0.2-0.8-0.5L17,32.8
	c-0.1-0.4-0.5-0.5-0.9-0.4c-0.1,0-0.1,0.1-0.2,0.1c-0.5,0.3-1,0.6-1.4,0.9c-0.3,0.2-0.7,0.3-1,0.1l-2.3-1.3
	c-0.3-0.2-0.5-0.5-0.4-0.9c0-0.6,0.1-1.1,0.1-1.7c0-0.3-0.2-0.6-0.5-0.7c0,0-0.1,0-0.1,0L8.4,29c-0.3,0.1-0.7-0.1-0.9-0.4
	c-0.4-0.7-0.8-1.4-1.3-2.1c-0.2-0.4-0.2-0.9,0.1-1.2c0.3-0.4,0.6-0.9,0.9-1.3c0.2-0.3,0.1-0.7-0.2-0.9c0,0,0,0,0,0
	c-0.5-0.3-0.9-0.5-1.4-0.8c-0.2-0.2-0.4-0.4-0.4-0.7c0-0.9,0-1.8,0-2.6c0-0.3,0.2-0.6,0.5-0.8c0.4-0.2,0.8-0.5,1.2-0.7
	c0.4-0.1,0.5-0.5,0.4-0.9c0-0.1-0.1-0.2-0.2-0.3c-0.3-0.5-0.6-0.9-0.9-1.4c-0.2-0.3-0.2-0.6-0.1-0.9c0.5-0.8,0.9-1.6,1.4-2.4
	c0.2-0.2,0.5-0.3,0.8-0.4c0.3,0,0.6,0,0.9,0l0,0 M9.7,27.6c0.2,0,0.5,0,0.7-0.1c0.4,0,0.7,0.1,1,0.4c0.7,0.4,1,1.3,0.8,2.1
	c0,0.1,0,0.1,0,0.2c-0.2,0.8,0.2,1.2,0.9,1.6c0.5,0.4,1.1,0.4,1.6,0c0.6-0.7,1.7-0.9,2.5-0.5h0c0.2,0.1,0.5,0.3,0.6,0.5
	c0.3,0.4,0.5,0.9,0.7,1.3c0.1,0.3,0.4,0.4,0.6,0.4c0.5,0,0.9,0,1.3,0c0.2,0,0.4-0.1,0.5-0.3c0.2-0.5,0.5-1,0.7-1.4
	c0.1-0.1,0.2-0.3,0.4-0.4c0.8-0.2,1.6-0.6,2.4,0c1.3,1,1.3,0.9,2.7,0c0,0,0.1,0,0.1,0s0.2-0.3,0.2-0.4c0-0.5-0.1-1-0.1-1.6
	c0-0.2,0-0.4,0.1-0.6c0.4-0.8,1.2-1.2,2.1-1.1c1.6,0.1,1.7,0.1,2.4-1.4c0.1-0.2,0.1-0.4,0-0.5c-0.3-0.5-0.6-0.9-0.9-1.4
	c-0.1-0.2-0.2-0.4-0.1-0.7c0.3-1.4,0.3-1.4,1.5-2.1c0.1-0.1,0.2-0.1,0.3-0.2c0.3-0.1,0.5-0.4,0.4-0.8c0-0.5,0.1-1.1-0.1-1.5
	s-0.8-0.6-1.3-0.8c-0.3-0.2-0.6-0.5-0.7-0.9c-0.3-0.7-0.2-1.6,0.4-2.2c0.1-0.1,0.2-0.3,0.3-0.4c0.3-0.3,0.4-0.8,0.1-1.2
	c-0.7-1.1-0.6-1.2-1.9-1c-0.8,0.2-1.6-0.2-2.1-0.8c-0.3-0.3-0.4-0.6-0.4-1c0-0.5,0.1-1,0.1-1.5c0-0.2-0.1-0.3-0.2-0.4
	c-0.4-0.3-0.8-0.5-1.2-0.7c-0.2-0.1-0.4-0.1-0.5,0c-0.5,0.3-1,0.6-1.4,0.9c-0.2,0.1-0.4,0.2-0.6,0.2C22.2,9,22.2,9,21.5,7.7l0,0
	c-0.1-0.6-0.7-1.1-1.3-1c-0.1,0-0.1,0-0.2,0c-0.3,0-0.5,0-0.8,0c-0.2,0-0.4,0.1-0.5,0.3c-0.2,0.5-0.5,1-0.8,1.5
	c-0.1,0.1-0.2,0.3-0.4,0.4c-0.8,0.4-1.7,0.4-2.4-0.1c-1.3-0.9-1.4-0.9-2.7,0c-0.2,0.1-0.3,0.3-0.3,0.5c0,0.5,0.1,1,0,1.6
	c0,0.3-0.1,0.6-0.3,0.8c-0.4,0.7-1.3,1.1-2.1,0.9c-0.1,0-0.3,0-0.4,0c-0.6-0.1-1,0.1-1.3,0.7c-0.5,1-0.6,1,0.1,1.9
	c0.6,0.6,0.8,1.5,0.4,2.3c-0.1,0.3-0.3,0.5-0.6,0.8c-0.4,0.3-0.8,0.5-1.1,0.7c-0.1,0.1-0.2,0.2-0.2,0.3c-0.1,0.6-0.1,1.2,0.1,1.9
	c0.1,0.4,0.8,0.5,1.2,0.8c0.1,0,0.2,0.1,0.2,0.1c0.1,0.1,0.3,0.3,0.4,0.5c0.5,0.8,0.3,1.8-0.3,2.5c-0.1,0.1-0.1,0.3-0.3,0.4
	c-0.4,0.4-0.3,0.8-0.1,1.2c0.4,0.8,0.9,1.3,1.9,1"/>
<path class="st0" d="M4.5,30.5l-1,0.7C-2.6,22-0.1,9.6,9.1,3.5C15.8-1,24.5-1,31.2,3.5l-0.7,1c-4.6-3.1-10.4-4-15.8-2.4
	c-3.6,1-6.8,3.1-9,6C0.1,15.3,0,22.8,4.5,30.5"/>
<path class="st0" d="M8.8,36.5l0.7-1c4.3,2.9,9.6,3.9,14.6,2.7c3.8-0.8,7.2-2.8,9.7-5.7c5.7-6.3,6.4-15.7,1.8-22.8l1-0.7
	c6,9.2,3.4,21.6-5.8,27.6C24.1,41.1,15.4,41,8.8,36.5"/>
<path class="st0" d="M30,8V6.7h4v-4h1.3c0,0.1,0,0.2,0,0.2c0,1.4,0,2.8,0,4.2c0,0.6-0.2,0.8-0.8,0.8h-4.1L30,8"/>
<path class="st0" d="M6,33.3v4H4.7c0-0.1,0-0.2,0-0.2c0-1.4,0-2.8,0-4.2c0-0.5,0.2-0.8,0.7-0.8c1.5,0,3,0,4.5,0c0,0,0,0,0.1,0v1.2
	L6,33.3z"/>
<path class="st0" d="M10,20c0-5.5,4.5-10,10-10s10,4.5,10,10s-4.5,10-10,10S10,25.5,10,20 M20,11.3c-4.8,0-8.7,3.9-8.6,8.7
	c0,4.8,3.9,8.7,8.7,8.6c4.8,0,8.7-3.9,8.6-8.7C28.6,15.2,24.7,11.3,20,11.3"/>
</svg>
