<svg id="Camada_1" data-name="Camada 1" xmlns="http://www.w3.org/2000/svg" viewBox="0 0 40 40.01"><defs><style>.cls-1{fill:#e43d30;}</style></defs><title>inverters_2</title><path class="cls-1" d="M410.47,288.61l.85.05a.63.63,0,0,0,.71-.73l-.09-1.69a.78.78,0,0,1,.38-.79l2.4-1.37a.79.79,0,0,1,.88.06l1.51.95a.68.68,0,0,0,1-.27c.27-.5.54-1,.79-1.5a.82.82,0,0,1,.84-.53c.86,0,1.72,0,2.59,0a.83.83,0,0,1,.84.52c.24.48.49.95.74,1.43a.7.7,0,0,0,1.12.3c.48-.3,1-.59,1.43-.9a.8.8,0,0,1,.89-.06l2.39,1.36a.78.78,0,0,1,.39.8l-.09,1.69a.64.64,0,0,0,.75.73l1.74-.09a.81.81,0,0,1,.8.37l1.36,2.3a.81.81,0,0,1-.05,1c-.33.47-.65,1-1,1.45a.68.68,0,0,0,.22,1c.44.27.89.53,1.34.79a.8.8,0,0,1,.46.79c0,.87,0,1.73,0,2.59a1.16,1.16,0,0,1-.4.72,12.39,12.39,0,0,1-1.26.76.69.69,0,0,0-.27,1.13c.3.46.6.92.91,1.38a.75.75,0,0,1,0,.87c-.47.81-.92,1.63-1.45,2.4a1,1,0,0,1-.77.3,17.65,17.65,0,0,1-1.78-.07.62.62,0,0,0-.67.68c0,.58,0,1.16.09,1.74a.78.78,0,0,1-.38.79l-2.4,1.37a.79.79,0,0,1-.88-.06c-.5-.32-1-.64-1.51-.95a.68.68,0,0,0-1,.27c-.27.5-.53,1-.79,1.5a.83.83,0,0,1-.84.53c-.86,0-1.73,0-2.59,0a.83.83,0,0,1-.84-.53l-.76-1.46a.69.69,0,0,0-1.07-.28c-.47.29-1,.59-1.43.9a.85.85,0,0,1-1,.06l-2.32-1.32a.83.83,0,0,1-.42-.86c0-.57.06-1.13.09-1.69a.62.62,0,0,0-.67-.69l-1.78.09a.86.86,0,0,1-.87-.41c-.42-.72-.84-1.43-1.28-2.14a1,1,0,0,1,.07-1.19c.32-.43.6-.89.89-1.34a.67.67,0,0,0-.22-.95,15.58,15.58,0,0,1-1.37-.83,1,1,0,0,1-.41-.71c-.05-.88,0-1.76,0-2.63a.78.78,0,0,1,.45-.76c.41-.23.82-.48,1.23-.72a.69.69,0,0,0,.27-1.13c-.3-.46-.6-.92-.91-1.38a.79.79,0,0,1-.06-.88c.47-.79.91-1.6,1.43-2.35a1.29,1.29,0,0,1,.8-.35,4.47,4.47,0,0,1,.89.05v0m.41,16.34c.24,0,.48,0,.71-.06a1.2,1.2,0,0,1,1,.35,1.91,1.91,0,0,1,.81,2.09c0,.07,0,.15,0,.22-.22.82.22,1.21.89,1.57a1.21,1.21,0,0,0,1.58-.05,2.17,2.17,0,0,1,2.55-.53h.05a2.88,2.88,0,0,1,.65.54,8.9,8.9,0,0,1,.71,1.33.56.56,0,0,0,.62.36c.45,0,.9,0,1.34,0a.47.47,0,0,0,.52-.31c.23-.48.48-1,.74-1.42.09-.15.21-.34.35-.38.8-.24,1.56-.59,2.42.05,1.29.95,1.34.89,2.69,0,0,0,.06,0,.07-.05s.21-.29.21-.44c0-.52-.06-1-.07-1.56a1.48,1.48,0,0,1,.08-.6,2.2,2.2,0,0,1,2.07-1.15c1.64.14,1.71.11,2.42-1.36a.7.7,0,0,0,0-.55c-.28-.47-.62-.91-.89-1.38a1,1,0,0,1-.15-.66c.28-1.36.29-1.36,1.49-2.06a1.48,1.48,0,0,1,.27-.16.64.64,0,0,0,.43-.76c0-.52.14-1.13-.08-1.53s-.81-.57-1.25-.81a1.49,1.49,0,0,1-.67-.88,1.88,1.88,0,0,1,.39-2.16c.11-.12.17-.29.28-.41a.85.85,0,0,0,.06-1.18c-.67-1.09-.65-1.17-1.92-1a2.2,2.2,0,0,1-2.15-.81,1.3,1.3,0,0,1-.36-1c0-.52.08-1,.08-1.55a.59.59,0,0,0-.22-.43,10.1,10.1,0,0,0-1.24-.7.7.7,0,0,0-.55,0c-.49.27-1,.61-1.44.89a1.09,1.09,0,0,1-.62.16c-1.37-.21-1.42-.26-2.07-1.51l0,0a1.17,1.17,0,0,0-1.51-.93,3.22,3.22,0,0,1-.76,0,.43.43,0,0,0-.48.29c-.24.49-.49,1-.76,1.46-.09.15-.22.33-.36.37a2.37,2.37,0,0,1-2.42-.08c-1.29-.94-1.35-.88-2.68,0a.72.72,0,0,0-.26.53c0,.52.08,1.05.05,1.56a1.68,1.68,0,0,1-.33.82,1.86,1.86,0,0,1-2.15.85c-.14,0-.3,0-.44,0-.62-.14-1,.15-1.26.68-.54,1-.62,1,.06,1.89a2,2,0,0,1,.4,2.31,2.2,2.2,0,0,1-.56.75c-.35.27-.76.45-1.14.7-.1.07-.24.21-.24.32a4.75,4.75,0,0,0,.06,1.85c.15.37.8.55,1.23.81.07.05.17.08.22.15a1.83,1.83,0,0,1,.37.47,2,2,0,0,1-.31,2.45c-.1.11-.15.26-.25.37-.37.39-.31.75-.07,1.22.42.81.91,1.34,1.9,1" transform="translate(-401.04 -277.46)"/><path class="cls-1" d="M405.51,308l-1,.66a20,20,0,0,1,27.72-27.73l-.72,1.05a18.56,18.56,0,0,0-15.78-2.41,17.1,17.1,0,0,0-9.05,6c-5.55,7.16-5.65,14.67-1.18,22.45" transform="translate(-401.04 -277.46)"/><path class="cls-1" d="M409.82,314l.72-1a18.63,18.63,0,0,0,14.63,2.72,18.26,18.26,0,0,0,9.71-5.67,18.75,18.75,0,0,0,1.76-22.82l1-.71A19.95,19.95,0,0,1,409.82,314" transform="translate(-401.04 -277.46)"/><path class="cls-1" d="M431.06,285.42v-1.27h4v-4h1.3a1.72,1.72,0,0,1,0,.24c0,1.41,0,2.83,0,4.24,0,.58-.24.81-.81.81h-4.15l-.36,0" transform="translate(-401.04 -277.46)"/><path class="cls-1" d="M407,310.76v4h-1.3a.93.93,0,0,1,0-.24c0-1.41,0-2.82,0-4.24,0-.52.21-.79.69-.8,1.51,0,3,0,4.54,0,0,0,.05,0,.1,0v1.23Z" transform="translate(-401.04 -277.46)"/><path class="cls-1" d="M411,297.47a10,10,0,1,1,10,10,10,10,0,0,1-10-10m10-8.67a8.66,8.66,0,1,0,8.67,8.65A8.67,8.67,0,0,0,421,288.8" transform="translate(-401.04 -277.46)"/></svg>