<svg id="Camada_1" data-name="Camada 1" xmlns="http://www.w3.org/2000/svg" viewBox="0 0 320 184.79"><defs><style>.cls-1{fill:#fff;}</style></defs><title>SolarModules</title><path class="cls-1" d="M580.1,380.1s0-.06,0-.09c-9.59-55.89-19.9-111.62-30-167.4-1.06-5.89-2.66-7.51-7.66-7.51q-121.58,0-243.15,0c-5,0-6.65,1.65-7.7,7.48-7.54,41.69-15.2,83.36-22.56,125.1-2.36,13.39-5.71,33.47-7.21,42.46l-.81,4.42a5,5,0,0,0,.76,3.69,3.58,3.58,0,0,0,2.93,1.63H294c2.43,0,4.47,0,5.73-.08,3.83-.13,6.21-3,6-7-.25-4.32-2.43-6.29-6.07-6.28-7,0-14,0-20.95,0H274c2.54-14.28,4.88-27.89,7.53-41.41.21-1.08,2.59-2.22,4-2.23,14.55-.16,29.1-.1,43.64-.1h37.63c-.89,14.63-1.75,28.9-2.66,43.74h-5c-11.2,0-22.41,0-33.61,0-3.64,0-5.83,1.91-6.18,6.17-.32,4,2.07,6.81,5.9,7.16,1.3.12,2.62,0,3.92,0H547.82a1.74,1.74,0,0,0,.22.05h29.19a3.58,3.58,0,0,0,2.93-1.63,5,5,0,0,0,.76-3.69ZM385.25,218.92h71.31c.88,14.21,1.75,28.37,2.65,43H382.63c.89-14.49,1.74-28.54,2.62-43m-3.43,56.81H460c.87,14.36,1.74,28.64,2.62,43.26H379.24c.87-14.46,1.71-28.61,2.58-43.26M367.56,319H284.38l7.67-43.14H370.2c-.88,14.47-1.75,28.65-2.64,43.14m3.46-57H294.59c2.61-14.45,5.17-28.69,7.77-43.11h71.22c-.86,14.46-1.7,28.62-2.56,43.11m4.8,114.23c.86-14.51,1.7-28.69,2.56-43.12h85.07c.86,14.42,1.7,28.6,2.56,43.12Zm92.4-157.3h71.25c2.58,14.24,5.15,28.47,7.79,43.09H470.85c-.86-14.18-1.74-28.47-2.63-43.09m3.37,56.87h78.12c2.56,14.23,5.12,28.41,7.77,43.13H474.3c-.88-14.09-1.78-28.39-2.71-43.13m3.42,57h4.7c25.28,0,50.56.07,75.84-.08,3.29,0,4.74.71,5.39,4.95,1.83,12,4.26,23.86,6.44,35.79a24.09,24.09,0,0,1,.14,2.78H477.73c-.89-14.26-1.78-28.42-2.72-43.44" transform="translate(-261 -205.08)"/></svg>