<svg id="Camada_1" data-name="Camada 1" xmlns="http://www.w3.org/2000/svg" viewBox="0 0 25 25"><defs><style>.cls-1{fill:#e43d30;}</style></defs><title>social_in</title><path class="cls-1" d="M423.86,279.26H420.5v-4.95a1.29,1.29,0,0,0-1.22-1.14,1.17,1.17,0,0,0-1.17,1.08v5h-3.36v-7l0-1.52h2.84l.14,1.12a3.41,3.41,0,0,1,3-1.41c3.21,0,3.18,3.56,3.18,3.56ZM412,270a1.6,1.6,0,1,1,1.72-1.6A1.66,1.66,0,0,1,412,270m1.6,9.29h-3.31v-8.51h3.31ZM416.5,261A12.5,12.5,0,1,0,429,273.5,12.5,12.5,0,0,0,416.5,261" transform="translate(-404 -261)"/></svg>