<svg id="Camada_1" data-name="Camada 1" xmlns="http://www.w3.org/2000/svg" viewBox="0 0 200 200.05"><defs><style>.cls-1{fill:#fff;}</style></defs><title>inverters</title><path class="cls-1" d="M368.35,253.06l4.23.22c2.32.11,3.66-1.25,3.55-3.61-.14-2.82-.28-5.64-.45-8.46a3.91,3.91,0,0,1,1.93-4q6-3.45,12-6.83a4,4,0,0,1,4.4.27c2.49,1.63,5,3.19,7.54,4.76a3.39,3.39,0,0,0,5-1.34c1.34-2.48,2.66-5,3.91-7.5a4.19,4.19,0,0,1,4.21-2.64q6.48.14,12.95,0a4.18,4.18,0,0,1,4.22,2.61c1.19,2.4,2.44,4.76,3.69,7.12,1.32,2.51,3.23,3,5.62,1.52s4.8-3,7.16-4.51a4,4,0,0,1,4.4-.31q6,3.39,12,6.83a3.91,3.91,0,0,1,2,4c-.17,2.82-.31,5.64-.44,8.46-.12,2.47,1.21,3.76,3.73,3.64l8.69-.44a4,4,0,0,1,4,1.88c2.27,3.83,4.58,7.64,6.84,11.47a4.11,4.11,0,0,1-.28,4.79c-1.66,2.38-3.23,4.81-4.8,7.25a3.4,3.4,0,0,0,1.1,4.76c2.22,1.35,4.46,2.68,6.73,3.95a4.1,4.1,0,0,1,2.29,4c-.07,4.31.13,8.64-.12,12.94a5.6,5.6,0,0,1-2,3.59,57.64,57.64,0,0,1-6.29,3.79c-2.51,1.5-2.93,3.28-1.36,5.67s3,4.6,4.55,6.87a3.84,3.84,0,0,1,.29,4.39c-2.36,4-4.64,8.13-7.28,12-.66,1-2.51,1.49-3.84,1.54-3,.1-5.94-.23-8.91-.36a3.08,3.08,0,0,0-3.35,3.39c.14,2.89.27,5.79.46,8.68a3.9,3.9,0,0,1-1.92,4q-6,3.45-12,6.83a4,4,0,0,1-4.4-.28c-2.5-1.62-5-3.18-7.54-4.75a3.39,3.39,0,0,0-5,1.34q-2,3.72-3.92,7.5a4.19,4.19,0,0,1-4.21,2.64c-4.31-.09-8.63-.08-12.95,0a4.2,4.2,0,0,1-4.22-2.62c-1.22-2.46-2.51-4.89-3.8-7.31-1.21-2.25-3.17-2.77-5.31-1.43-2.4,1.5-4.81,3-7.16,4.52a4.26,4.26,0,0,1-4.81.31l-11.6-6.61a4.15,4.15,0,0,1-2.1-4.31c.21-2.82.31-5.64.43-8.46a3.06,3.06,0,0,0-3.31-3.41c-3,.13-5.94.27-8.9.44a4.27,4.27,0,0,1-4.35-2.08c-2.1-3.58-4.23-7.15-6.42-10.68a4.85,4.85,0,0,1,.36-6c1.58-2.16,3-4.44,4.42-6.69a3.36,3.36,0,0,0-1.09-4.74,77.45,77.45,0,0,1-6.85-4.15,5.46,5.46,0,0,1-2-3.57c-.24-4.37-.06-8.77-.11-13.16a3.92,3.92,0,0,1,2.25-3.77c2.08-1.16,4.12-2.38,6.16-3.6,2.52-1.5,2.94-3.23,1.36-5.67s-3-4.6-4.55-6.87a3.85,3.85,0,0,1-.29-4.4c2.32-4,4.54-8,7.14-11.79.71-1,2.58-1.48,4-1.71a19.64,19.64,0,0,1,4.44.23v-.09m2,81.69c1.19-.08,2.38-.1,3.55-.28,2-.3,3.3.56,4.79,1.75,3.45,2.75,5.14,6,4,10.43-.08.35.06.76,0,1.11-1.09,4.1,1.08,6.05,4.45,7.85,2.92,1.56,5.19,2.1,7.9-.25,3.69-3.21,7.83-5.08,12.76-2.65.07,0,.17,0,.22.06,1.12.87,2.53,1.54,3.28,2.66a47.47,47.47,0,0,1,3.56,6.68,2.78,2.78,0,0,0,3.1,1.81,59.72,59.72,0,0,1,6.69,0,2.38,2.38,0,0,0,2.57-1.57q1.77-3.6,3.73-7.1c.42-.74,1-1.7,1.73-1.91,4-1.21,7.79-2.93,12.12.27,6.43,4.76,6.67,4.43,13.43,0,.12-.08.3-.13.36-.24.38-.73,1-1.47,1-2.21,0-2.59-.26-5.19-.32-7.79a6.81,6.81,0,0,1,.41-3,11,11,0,0,1,10.35-5.73c8.19.73,8.53.57,12.1-6.8a3.43,3.43,0,0,0-.19-2.73c-1.38-2.38-3.08-4.56-4.45-6.94a5.19,5.19,0,0,1-.75-3.3c1.39-6.8,1.45-6.79,7.45-10.3a8.32,8.32,0,0,1,1.36-.77c1.83-.66,2.3-1.95,2.16-3.81-.2-2.59.7-5.65-.41-7.67s-4-2.83-6.24-4c-1.85-1-2.58-2.53-3.36-4.42-1.72-4.17-.89-7.59,2-10.8.54-.61.84-1.43,1.39-2,1.78-1.91,1.64-3.67.28-5.9-3.33-5.47-3.25-5.88-9.6-5.14-4.53.53-7.84-.52-10.73-4a6.32,6.32,0,0,1-1.79-4.77c.19-2.59.38-5.2.37-7.79a2.91,2.91,0,0,0-1.1-2.13,46.65,46.65,0,0,0-6.2-3.49,3.46,3.46,0,0,0-2.73.11c-2.47,1.35-4.76,3-7.22,4.41a5.28,5.28,0,0,1-3.11.8c-6.82-1-7.1-1.29-10.35-7.51,0-.07-.09-.12-.11-.19-1.1-3.87-3.55-5.45-7.57-4.7a14.07,14.07,0,0,1-3.78,0,2.15,2.15,0,0,0-2.4,1.47c-1.22,2.46-2.48,4.9-3.84,7.29a3.91,3.91,0,0,1-1.78,1.87c-4,1.21-7.8,2.79-12.12-.39-6.45-4.75-6.73-4.44-13.4.16a3.78,3.78,0,0,0-1.29,2.68c-.06,2.6.41,5.21.24,7.79a8.47,8.47,0,0,1-1.62,4.1c-2.61,3.72-6.13,5.42-10.75,4.22-.7-.18-1.5.05-2.22-.11-3.1-.69-4.8.73-6.28,3.38-2.74,4.89-3.09,5,.29,9.43,2.76,3.66,4.22,7.28,2,11.59a11.43,11.43,0,0,1-2.81,3.72c-1.73,1.37-3.82,2.29-5.69,3.5-.54.35-1.2,1-1.21,1.59-.09,3.12-.78,6.55.3,9.26.74,1.87,4,2.75,6.14,4.07a4.58,4.58,0,0,1,1.12.72,10.14,10.14,0,0,1,1.84,2.38c1.93,4.36,2.15,8.56-1.54,12.25-.52.52-.76,1.3-1.26,1.83-1.86,2-1.54,3.75-.34,6.1,2.08,4.07,4.52,6.73,9.49,5.16" transform="translate(-321.18 -197.28)"/><path class="cls-1" d="M343.56,350.05l-5,3.32c-25.37-35.86-24.49-90.86,12.53-127.42,36.16-35.71,90.71-36.4,126.09-11.27L473.6,220c-24.53-15.7-50.83-20.17-78.89-12.09-18.14,5.23-33.7,15-45.26,29.9-27.77,35.81-28.25,73.35-5.89,112.27" transform="translate(-321.18 -197.28)"/><path class="cls-1" d="M365.12,379.86c1.16-1.69,2.33-3.39,3.6-5.22,22.57,14.52,46.92,19.44,73.12,13.6a91.64,91.64,0,0,0,48.56-28.32,93.81,93.81,0,0,0,8.8-114.11l5.21-3.56c24.38,34.94,24.07,90-13.54,126.73-37.32,36.47-92.08,35.13-125.75,10.88" transform="translate(-321.18 -197.28)"/><path class="cls-1" d="M471.28,237.11v-6.38h19.91V210.79h6.51a6.8,6.8,0,0,1,.21,1.21c0,7.07,0,14.13,0,21.19,0,2.9-1.2,4.06-4.07,4.07q-10.36,0-20.74,0c-.58,0-1.16-.09-1.82-.15" transform="translate(-321.18 -197.28)"/><path class="cls-1" d="M351.15,363.81v20h-6.51a6.8,6.8,0,0,1-.21-1.21q0-10.59,0-21.18c0-2.6,1.05-4,3.45-4,7.57-.1,15.15,0,22.73,0,.13,0,.26.13.47.24v6.15Z" transform="translate(-321.18 -197.28)"/><path class="cls-1" d="M371.15,297.34a50,50,0,1,1,50,50,50.11,50.11,0,0,1-50-50m50-43.35a43.31,43.31,0,1,0,43.33,43.27A43.35,43.35,0,0,0,421.15,254" transform="translate(-321.18 -197.28)"/></svg>