<svg id="Camada_1" data-name="Camada 1" xmlns="http://www.w3.org/2000/svg" viewBox="0 0 24.99 24.99"><defs><style>.cls-1{fill:#e43d30;}</style></defs><title>social_instagram</title><path class="cls-1" d="M416.5,271.32a2.18,2.18,0,1,0,2.18,2.18,2.19,2.19,0,0,0-2.18-2.18" transform="translate(-404 -261)"/><path class="cls-1" d="M422.09,269.2a2,2,0,0,0-.51-.78,2.16,2.16,0,0,0-.78-.51,3.69,3.69,0,0,0-1.31-.24c-.78,0-1,0-3,0s-2.2,0-3,0a3.83,3.83,0,0,0-1.33.24,2.2,2.2,0,0,0-.78.51,2.09,2.09,0,0,0-.5.78,3.88,3.88,0,0,0-.25,1.31c0,.76,0,1,0,3s0,2.2,0,3a3.75,3.75,0,0,0,.25,1.31,2,2,0,0,0,.5.79,2,2,0,0,0,.78.5,3.77,3.77,0,0,0,1.32.25c.76,0,1,0,3,0s2.21,0,3,0a3.9,3.9,0,0,0,1.3-.24,2.07,2.07,0,0,0,.79-.51,2.2,2.2,0,0,0,.51-.78,3.85,3.85,0,0,0,.24-1.31c0-.79,0-1,0-3s0-2.21,0-3a3.8,3.8,0,0,0-.24-1.31m-5.59,8.25a4,4,0,1,1,4-3.95,4,4,0,0,1-4,3.95m3.94-6.92a1,1,0,1,1,1-1,1,1,0,0,1-1,1" transform="translate(-404 -261)"/><path class="cls-1" d="M425.34,264.66A12.51,12.51,0,1,0,429,273.5a12.47,12.47,0,0,0-3.66-8.84m-1.26,11.9a5.36,5.36,0,0,1-.36,1.87,3.67,3.67,0,0,1-.9,1.39,3.88,3.88,0,0,1-1.39.9,5.4,5.4,0,0,1-1.86.36c-.78,0-1,0-3.07,0s-2.26,0-3.07,0a5.5,5.5,0,0,1-1.87-.36,4,4,0,0,1-1.38-.9,4,4,0,0,1-.9-1.39,6,6,0,0,1-.36-1.87c0-.78,0-1,0-3.06s0-2.27,0-3.07a5.91,5.91,0,0,1,.36-1.86,3.79,3.79,0,0,1,.9-1.39,3.88,3.88,0,0,1,1.38-.9,5.55,5.55,0,0,1,1.87-.36c.8,0,1.06-.05,3.07-.05s2.28,0,3.07.05a5.44,5.44,0,0,1,1.86.36,4,4,0,0,1,2.29,2.29,5.35,5.35,0,0,1,.36,1.86c0,.78.05,1,.05,3.07s0,2.28-.05,3.06" transform="translate(-404 -261)"/></svg>