<svg id="Camada_1" data-name="Camada 1" xmlns="http://www.w3.org/2000/svg" viewBox="0 0 99.82 67.59"><defs><style>.cls-1{fill:#e43d30;}</style></defs><title>second</title><path class="cls-1" d="M529.46,311.79,511,293.32a1.95,1.95,0,1,0-2.75,2.76l17.09,17.09-10,10a.78.78,0,0,1-1.11,0l-19.74-19.74a.78.78,0,0,1,0-1.11l6.7-6.71a1.95,1.95,0,0,0-2.75-2.76l-6.71,6.71a4.7,4.7,0,0,0-1,5.15L488.45,307H472.59l-2.86-2.86a4.71,4.71,0,0,0,.16-1.25,4.62,4.62,0,0,0-1.37-3.31L462,293a1.95,1.95,0,1,0-2.75,2.76l6.52,6.53a.77.77,0,0,1,.23.55.81.81,0,0,1-.23.56l-.54.54L446,323.17l0,0a.8.8,0,0,1-.53.21.79.79,0,0,1-.56-.23l-10-10,17.32-17.33a1.95,1.95,0,0,0-2.75-2.76l-18.71,18.71a2,2,0,0,0,0,2.76l11.37,11.37a4.68,4.68,0,0,0,3.32,1.38,4.74,4.74,0,0,0,1.62-.3l6.41,6.4a6.66,6.66,0,0,0,5.88,9.79h0a6.67,6.67,0,0,0,6.64,6.66h0a6.65,6.65,0,0,0,9.79,5.88l2.39,2.39a5.91,5.91,0,0,0,10.09-3.94,6,6,0,0,0,5.73-6.09v0a6.44,6.44,0,0,0,4.41-2.1,6.57,6.57,0,0,0,1.73-4.45,6.38,6.38,0,0,0,5.5-9.24l6.4-5.85a4.67,4.67,0,0,0,6-.52l11.38-11.38a2,2,0,0,0,0-2.76M459.38,339.3a2.77,2.77,0,1,1,2.77-2.77,2.77,2.77,0,0,1-2.77,2.77m8.75,5.74-.23.23a2.81,2.81,0,1,1,.23-.23m6.57,6.76,0,0,0,0a2.76,2.76,0,0,1-4-3.82l.24-.23a2.73,2.73,0,0,1,1.82-.7,2.77,2.77,0,0,1,2,4.7m27.05-14.88a2.49,2.49,0,0,1-3.5,0l-4.05-4.05a2,2,0,0,0-2.76,2.76l4.06,4.05h0a2.65,2.65,0,0,1,.08,3.66,2.66,2.66,0,0,1-3.77.13l-3.9-3.69a1.95,1.95,0,1,0-2.68,2.83l4.24,4a2.14,2.14,0,0,1,.67,1.52,2.13,2.13,0,0,1-3.63,1.53l-2-2a2,2,0,0,0-2.76,2.76l2,2a2,2,0,0,1,.59,1.42,2,2,0,0,1-2,2,2,2,0,0,1-1.42-.59L478.6,353a6.56,6.56,0,0,0,.78-3.12,6.68,6.68,0,0,0-6.64-6.67h0a6.67,6.67,0,0,0-6.67-6.67h0a6.66,6.66,0,0,0-9.8-5.88l-6.09-6.1,17.24-17.24,3,3a2,2,0,0,0,1.38.57h2.53l-7.7,7.7a6.23,6.23,0,1,0,8.81,8.81l6.53-6.53,7.15.08,12.64,12.47a2.46,2.46,0,0,1,.73,1.75,2.42,2.42,0,0,1-.72,1.76m1.41-7.59-11.88-11.72,0,0a1.94,1.94,0,0,0-1.6-.54l-8.49-.1a2,2,0,0,0-1.4.57l-7.11,7.11a2.33,2.33,0,1,1-3.29-3.29l10.45-10.46h9.44a2,2,0,0,0,1.38-.57l2.6-2.6,16,16Z" transform="translate(-430.21 -292.28)"/></svg>