<svg id="Camada_1" data-name="Camada 1" xmlns="http://www.w3.org/2000/svg" viewBox="0 0 69.38 73"><defs><style>.cls-1{fill:#e30613;stroke:#e43d30;stroke-miterlimit:10;}</style></defs><title>first</title><path class="cls-1" d="M449,269.57h-4.5V265a1.41,1.41,0,1,0-2.81,0v5.37l-5.88,5.9a32.16,32.16,0,0,0-44.36,46.54,33.44,33.44,0,0,0,3,2.63l-7.74,7.75a1.41,1.41,0,0,0,1,2.4,1.44,1.44,0,0,0,1-.41l8.08-8.08a32.21,32.21,0,0,0,35-.05l8.12,8.13a1.44,1.44,0,0,0,1,.41,1.41,1.41,0,0,0,1-2.4l-7.8-7.8a35.32,35.32,0,0,0,2.91-2.58,32.15,32.15,0,0,0,6.23-36.7,1.39,1.39,0,0,0-1.87-.66,1.41,1.41,0,0,0-.66,1.88,29,29,0,0,1,2.9,12.74,29.33,29.33,0,1,1-9.71-21.81l-4.93,5a22.42,22.42,0,1,0,2,2l5.94-6h0l6.84-6.86H449a1.41,1.41,0,1,0,0-2.81ZM433.07,295a19.56,19.56,0,1,1-18.88-14.43,19.4,19.4,0,0,1,12.71,4.7l-5.81,5.82a11.38,11.38,0,1,0,2,2l5.8-5.82A19.66,19.66,0,0,1,433.07,295Zm-19.69,5.81a1.44,1.44,0,0,0,1,.41,1.4,1.4,0,0,0,1-.41L421.1,295a8.59,8.59,0,1,1-2-2l-5.7,5.72A1.41,1.41,0,0,0,413.38,300.77Z" transform="translate(-381.53 -263.11)"/></svg>