<svg id="Camada_1" data-name="Camada 1" xmlns="http://www.w3.org/2000/svg" viewBox="0 0 63.42 76"><defs><style>.cls-1{fill:none;stroke:#e43d30;stroke-linecap:round;stroke-linejoin:round;stroke-width:4px;}</style></defs><title>third</title><path class="cls-1" d="M504.24,331.08a19.42,19.42,0,0,0-4.38-4.44,16.8,16.8,0,0,0-5.47-2.8c-.95-.26-1.13-.65-.72-1.49l.81-1.62c3.13-6.26,14.5-29.17,15.35-30.75H472.45a21.75,21.75,0,0,0-8.73,1.93,18.37,18.37,0,0,0-4.68,3,19.5,19.5,0,0,0-4.77,6.37,15.09,15.09,0,0,0-1.63,5.57c-.21,3.36-.26,6.69,1.16,9.9a24.6,24.6,0,0,0,2.27,4.2,20,20,0,0,0,6.48,5.78.83.83,0,0,0,1.34-.42c.53-1,1.13-2,1.6-3.1.55-1.27,1-2-.64-2.55a1.48,1.48,0,0,1-.3-.21,13.31,13.31,0,0,1-5.21-7.26,13,13,0,0,1-.15-6.78,13.29,13.29,0,0,1,4.07-6.68,11.82,11.82,0,0,1,7.18-3.23c3-.23,12.17-.15,12.6-.15l-16.3,32.8c-7.95,16-15.89,31.93-16.33,32.79l36,0a30.36,30.36,0,0,0,5.36-.35,19.83,19.83,0,0,0,7.45-3,18.84,18.84,0,0,0,5.72-5.93,18.13,18.13,0,0,0,2.69-7.48,19.35,19.35,0,0,0-1.07-9.78A23.21,23.21,0,0,0,504.24,331.08Zm-14.05-34.69h9.22l-10.93,22c-1.13,2.23-1.92,3.77-2,3.93a1.42,1.42,0,0,1-1,.42l-8.34,0Zm10.94,48.9A13.74,13.74,0,0,1,496,353a12.73,12.73,0,0,1-4.94,2.23c-2.22.42-13.16.34-13.92.33l11.33-22.79h-7.15l-11.26,22.63a.76.76,0,0,0-.15.17h-9.12l13.13-26.42h14.16a13.21,13.21,0,0,1,7.39,2.18,14.1,14.1,0,0,1,4.3,4.59,13.41,13.41,0,0,1,1.57,4.58A11.43,11.43,0,0,1,501.13,345.29Z" transform="translate(-448.41 -287.98)"/></svg>