<svg id="Camada_1" data-name="Camada 1" xmlns="http://www.w3.org/2000/svg" viewBox="0 0 435.95 435.35"><defs><style>.cls-1{fill:#d23e2f;}</style></defs><title>become_installer</title><path class="cls-1" d="M302.88,375.24c-28.84-31.1-36.78-66-17.55-103.91,15.23-30,41.38-46.15,75.44-46.55,38.87-.46,65.28,19.36,82,53l36.07-19.56c-39.48-38.87-32.6-94.75-1.8-125,32.81-32.18,83.51-33.93,117.6-4.59a87.47,87.47,0,0,1,26.64,40.5c5.06,15.86,5.08,31.87.87,47.94-4.26,16.23-13.08,29.77-24.54,41.16,10.65,6,21.22,11.53,31.38,17.76,9.32,5.71,11.58,16,6.08,24.3-5.37,8.12-15.59,10.11-24.39,4.24q-44-29.31-96-20.39c-24.76,4.28-46.23,15.54-64.43,32.89a6.7,6.7,0,0,0-1.9,3.72c-2.41,20.78-11.24,38.37-26.15,53a6.81,6.81,0,0,0-.82,1.07c10.8,6.06,21.72,11.7,32.12,18.17,10.12,6.29,11.07,19,2.66,27.07-5.48,5.24-14.37,5.91-21.54,1.12-12.24-8.2-25.32-14.62-39.59-18.15-40.43-10-77.8-3-111.67,21.35-21.8,15.7-37.34,36.19-45.88,61.81-4,12,2.46,22,15,23.31a50.17,50.17,0,0,0,5.35.12q70.29,0,140.6,0c5.88,0,11.3,1,15.42,5.66,4.79,5.4,5.82,11.7,3,18.1s-7.79,9.66-15.35,9.63c-49.79-.2-99.59-.72-149.36.17-23.15.41-45.79-18.77-49.31-41.92A53.16,53.16,0,0,1,205.21,475c16.6-46.49,48.39-78.56,93.43-98,1.34-.58,2.68-1.13,4.24-1.78M362,258.43c-28.78.13-52.69,24-52.73,52.69a52.83,52.83,0,1,0,105.66-.26c-.23-28.81-24.22-52.57-52.93-52.43m123.76-63.57a52.21,52.21,0,0,0,53,52.4,52.79,52.79,0,0,0,52.46-52.72c-.11-28.86-24.47-52.93-53.25-52.59a52.67,52.67,0,0,0-52.2,52.91" transform="translate(-202.16 -107.87)"/><path class="cls-1" d="M540.13,445.78c0-9.46,0-18.34,0-27.21,0-6.32-.13-12.64.05-19,.3-10.45,7.13-17.49,16.8-17.57,9.32-.07,16.7,6.77,17,16.91.45,13.27.16,26.57.19,39.86,0,2.09,0,4.18,0,7h5.53c13.61,0,27.23-.1,40.84.05A17.13,17.13,0,0,1,637,457.33c2.4,6.57.87,13.83-5.3,18.23a24.16,24.16,0,0,1-12.5,4.11c-12.94.53-25.92.19-38.88.19h-5.77c-.13,2.06-.32,3.76-.32,5.47,0,12.31,0,24.63,0,36.94a51,51,0,0,1-.36,6.3c-1.35,10.2-7.6,14.72-19.76,14.37-7.4-.2-13.54-6.61-13.77-15.43-.36-13.92-.16-27.86-.2-41.8v-5.85h-5.72c-13.77,0-27.55.14-41.32-.11-8.49-.15-14.51-5.33-16.39-13.29A16.65,16.65,0,0,1,485.26,448a23.38,23.38,0,0,1,9.79-2.15c13.12-.24,26.25-.1,39.37-.1h5.71" transform="translate(-202.16 -107.87)"/></svg>