<svg id="Camada_1" data-name="Camada 1" xmlns="http://www.w3.org/2000/svg" viewBox="0 0 200 161.86"><defs><style>.cls-1{fill:#e30613;}</style></defs><title>structures_available_soon</title><path class="cls-1" d="M391.75,346.85H373.58V237.91a3.79,3.79,0,1,0-7.58,0V346.85H348.21a3.79,3.79,0,1,0,0,7.58h43.54a3.79,3.79,0,1,0,0-7.58" transform="translate(-321 -192.57)"/><path class="cls-1" d="M484.08,346.85H465.9V237.91a3.79,3.79,0,1,0-7.57,0V346.85H440.54a3.79,3.79,0,0,0,0,7.58h43.54a3.79,3.79,0,1,0,0-7.58" transform="translate(-321 -192.57)"/><rect class="cls-1" x="456.39" y="176.46" width="19.9" height="122.44" transform="translate(-326.82 271) rotate(-52.57)"/><rect class="cls-1" x="365.71" y="176.46" width="19.9" height="122.44" transform="translate(-362.38 199.01) rotate(-52.58)"/><path class="cls-1" d="M383.79,353.48H356.1a2.84,2.84,0,0,1-2.84-2.84v-12a2.92,2.92,0,0,1,2.91-2.92h27.69a2.84,2.84,0,0,1,2.84,2.84v12a2.92,2.92,0,0,1-2.91,2.91m-25.57-5h23.53v-7.84H358.22Z" transform="translate(-321 -192.57)"/><path class="cls-1" d="M476.11,353.48H448.38a2.8,2.8,0,0,1-2.79-2.8v-12a2.92,2.92,0,0,1,2.91-2.92h27.69a2.84,2.84,0,0,1,2.84,2.84v12a2.92,2.92,0,0,1-2.92,2.91m-25.57-5h23.53v-7.84H450.54Z" transform="translate(-321 -192.57)"/></svg>